<svg width="17" height="19" viewBox="0 0 17 19" fill="none" xmlns="http://www.w3.org/2000/svg">
<path fill-rule="evenodd" clip-rule="evenodd" d="M11.8374 17.3331H4.88088C2.32558 17.3331 0.365241 16.4101 0.922068 12.6954L1.57043 7.66107C1.91368 5.80753 3.09598 5.09814 4.13336 5.09814H12.6154C13.6681 5.09814 14.7817 5.86092 15.1784 7.66107L15.8267 12.6954C16.2996 15.9906 14.3927 17.3331 11.8374 17.3331Z" stroke="#11142D" stroke-width="1.5" stroke-linecap="round" stroke-linejoin="round"/>
<path opacity="0.4" d="M11.9517 4.91528C11.9517 2.92689 10.3398 1.31497 8.3514 1.31497V1.31497C7.3939 1.31092 6.47422 1.68844 5.79573 2.36407C5.11724 3.0397 4.73583 3.95777 4.73584 4.91528H4.73584" stroke="#11142D" stroke-width="1.5" stroke-linecap="round" stroke-linejoin="round"/>
<path d="M10.8228 8.66801H10.7847" stroke="#11142D" stroke-width="1.5" stroke-linecap="round" stroke-linejoin="round"/>
<path d="M5.96393 8.66801H5.9258" stroke="#11142D" stroke-width="1.5" stroke-linecap="round" stroke-linejoin="round"/>
</svg>
