<svg width="22" height="22" viewBox="0 0 22 22" fill="none" xmlns="http://www.w3.org/2000/svg">
<path d="M10.2499 10.2403V10.9903C10.6641 10.9903 10.9999 10.6545 10.9999 10.2403H10.2499ZM10.2499 11.7403H10.9999C10.9999 11.3261 10.6641 10.9903 10.2499 10.9903V11.7403ZM11.7499 11.7403V10.9903C11.3357 10.9903 10.9999 11.3261 10.9999 11.7403H11.7499ZM11.7499 10.2403H10.9999C10.9999 10.6545 11.3357 10.9903 11.7499 10.9903V10.2403ZM10.9999 7.32715H12.4999C12.4999 6.49872 11.8283 5.82715 10.9999 5.82715V7.32715ZM10.9999 7.32715H10.9999V5.82715C10.1715 5.82715 9.49992 6.49872 9.49992 7.32715H10.9999ZM10.9999 10.2403V7.32715H9.49992V10.2403H10.9999ZM7.33325 10.9903H10.2499V9.49033H7.33325V10.9903ZM7.33325 10.9903V9.49033C6.50482 9.49033 5.83325 10.1619 5.83325 10.9903H7.33325ZM7.33325 10.9903H5.83325C5.83325 11.8188 6.50482 12.4903 7.33325 12.4903V10.9903ZM10.2499 10.9903H7.33325V12.4903H10.2499V10.9903ZM10.9999 14.6535V11.7403H9.49992V14.6535H10.9999ZM10.9999 14.6535H10.9999H9.49992C9.49992 15.4819 10.1715 16.1535 10.9999 16.1535V14.6535ZM10.9999 14.6535V16.1535C11.8283 16.1535 12.4999 15.4819 12.4999 14.6535H10.9999ZM10.9999 11.7403V14.6535H12.4999V11.7403H10.9999ZM14.6666 10.9903H11.7499V12.4903H14.6666V10.9903ZM14.6666 10.9903V12.4903C15.495 12.4903 16.1666 11.8188 16.1666 10.9903H14.6666ZM14.6666 10.9903H16.1666C16.1666 10.1619 15.495 9.49033 14.6666 9.49033V10.9903ZM11.7499 10.9903H14.6666V9.49033H11.7499V10.9903ZM10.9999 7.32715V10.2403H12.4999V7.32715H10.9999Z" fill="white"/>
<path fill-rule="evenodd" clip-rule="evenodd" d="M15.6857 1H6.31429C3.04762 1 1 3.31208 1 6.58516V15.4148C1 18.6879 3.0381 21 6.31429 21H15.6857C18.9619 21 21 18.6879 21 15.4148V6.58516C21 3.31208 18.9619 1 15.6857 1Z" stroke="white" stroke-width="1.5" stroke-linecap="round" stroke-linejoin="round"/>
</svg>
